nColumns=19
nRows=62
DataType=double
version=3
OpenSimVersion=4.1
endheader
time	ground_force_calcn_r_vx	ground_force_calcn_r_vy	ground_force_calcn_r_vz	ground_force_calcn_r_px	ground_force_calcn_r_py	ground_force_calcn_r_pz	ground_force_calcn_r_mx	ground_force_calcn_r_my	ground_force_calcn_r_mz	ground_force_calcn_l_vx	ground_force_calcn_l_vy	ground_force_calcn_l_vz	ground_force_calcn_l_px	ground_force_calcn_l_py	ground_force_calcn_l_pz	ground_force_calcn_l_mx	ground_force_calcn_l_my	ground_force_calcn_l_mz
0.11	0	0	0	0	0	0	0	0	0	-32.4119	137.985	20.6511	0.919967	0	-0.381314	-1.35137	5.75308	0.861017
0.12	0	0	0	0	0	0	0	0	0	-147.775	535.72	51.2728	0.929209	0	-0.379932	0.611138	-2.21553	-0.212044
0.13	0	0	0	0	0	0	0	0	0	-207.817	998.355	78.8048	0.912409	0	-0.369273	1.63809	-7.86942	-0.62117
0.14	0	0	0	0	0	0	0	0	0	-214.119	1417.46	74.2518	0.879539	0	-0.361612	1.53853	-10.185	-0.53353
0.15	0	0	0	0	0	0	0	0	0	-221.769	1709.71	31.7681	0.841883	0	-0.360387	1.21817	-9.39136	-0.174501
0.16	0	0	0	0	0	0	0	0	0	-237.053	1898.51	-9.8055	0.806005	0	-0.361494	0.906855	-7.26282	0.0375113
0.17	0	0	0	0	0	0	0	0	0	-224.243	2067.19	-14.558	0.770971	0	-0.360322	0.619319	-5.70919	0.0402065
0.18	0	0	0	0	0	0	0	0	0	-157.642	2213.41	5.45368	0.734283	0	-0.359069	0.396558	-5.56797	-0.0137191
0.19	0	0	0	0	0	0	0	0	0	-63.2584	2274.51	18.8822	0.696358	0	-0.360723	0.179199	-6.44327	-0.0534896
0.2	0	0	0	0	0	0	0	0	0	24.6596	2228.72	19.9771	0.658476	0	-0.363194	-0.0804849	-7.27416	-0.0652019
0.21	0	0	0	0	0	0	0	0	0	105.3	2087.13	18.341	0.620273	0	-0.363365	-0.354535	-7.02719	-0.0617526
0.22	0	0	0	0	0	0	0	0	0	188.997	1847.26	10.78	0.578726	0	-0.361953	-0.532043	-5.20022	-0.0303466
0.23	0	0	0	0	0	0	0	0	0	267.617	1515.37	-8.78517	0.531791	0	-0.361566	-0.373515	-2.115	0.0122615
0.24	0	0	0	0	0	0	0	0	0	302.065	1133.92	-29.2109	0.483589	0	-0.3627	0.305172	1.14559	-0.0295114
0.25	0	0	0	0	0	0	0	0	0	272.875	762.557	-34.5039	0.441214	0	-0.362684	1.22589	3.42578	-0.155009
0.26	0	0	0	0	0	0	0	0	0	200.642	454.761	-25.7412	0.416885	0	-0.357785	1.87608	4.25219	-0.24069
0.27	0	0	0	0	0	0	0	0	0	116.295	229.762	-15.7425	0.407471	0	-0.351574	1.96989	3.89188	-0.266659
0.28	0	0	0	0	0	0	0	0	0	51.3802	88.522	-10.5225	0.363772	0	-0.353066	1.62874	2.80613	-0.33356
0.29	0	0	0	0	0	0	0	0	0	15.712	26.8796	-6.71804	0.346471	0	-0.345595	0.976968	1.67137	-0.417725
0.3	0	0	0	0	0	0	0	0	0	1.69944	12.187	-1.82518	0.788853	0	-0.24161	0.142107	1.01908	-0.152621
0.31	0	0	0	0	0	0	0	0	0	0	0	0	0	0	0	0	0	0
0.32	0	0	0	0	0	0	0	0	0	0	0	0	0	0	0	0	0	0
0.33	0	0	0	0	0	0	0	0	0	0	0	0	0	0	0	0	0	0
0.34	0	0	0	0	0	0	0	0	0	0	0	0	0	0	0	0	0	0
0.35	0	0	0	0	0	0	0	0	0	0	0	0	0	0	0	0	0	0
0.36	0	0	0	0	0	0	0	0	0	0	0	0	0	0	0	0	0	0
0.37	0	0	0	0	0	0	0	0	0	0	0	0	0	0	0	0	0	0
0.38	0	0	0	0	0	0	0	0	0	0	0	0	0	0	0	0	0	0
0.39	-13.6935	27.3634	-8.25215	0.960307	0	-0.228564	-0.120473	0.240738	-0.0726007	0	0	0	0	0	0	0	0	0
0.4	-51.398	110.757	-18.7848	0.973437	0	-0.253083	-0.678207	1.46147	-0.247869	0	0	0	0	0	0	0	0	0
0.41	-133.579	334.169	-33.575	0.982101	0	-0.256099	-1.10854	2.7732	-0.278632	0	0	0	0	0	0	0	0	0
0.42	-229.243	716.6	-46.322	0.974021	0	-0.259881	-1.15123	3.59867	-0.232623	0	0	0	0	0	0	0	0	0
0.43	-273.601	1160.26	-46.4775	0.943815	0	-0.26612	-0.810814	3.43843	-0.137736	0	0	0	0	0	0	0	0	0
0.44	-285.894	1552.71	-27.9072	0.904579	0	-0.272265	-0.41989	2.28045	-0.0409871	0	0	0	0	0	0	0	0	0
0.45	-308.866	1830.29	-0.120981	0.868686	0	-0.27636	-0.147392	0.87342	-5.77327e-05	0	0	0	0	0	0	0	0	0
0.46	-307.715	2014.47	16.0685	0.83325	0	-0.27912	-0.0333174	0.218113	0.00173979	0	0	0	0	0	0	0	0	0
0.47	-250.847	2156.76	11.3665	0.794618	0	-0.280752	-0.109707	0.94325	0.00497111	0	0	0	0	0	0	0	0	0
0.48	-163.862	2257.89	-3.57346	0.756007	0	-0.280317	-0.218562	3.01161	-0.00476632	0	0	0	0	0	0	0	0	0
0.49	-80.8184	2284.78	-17.0417	0.719168	0	-0.278514	-0.203774	5.7608	-0.0429685	0	0	0	0	0	0	0	0	0
0.5	-0.349295	2219.41	-27.0973	0.681559	0	-0.276936	-0.00130246	8.27582	-0.101041	0	0	0	0	0	0	0	0	0
0.51	86.5361	2064.06	-31.5985	0.64103	0	-0.275968	0.410118	9.78214	-0.149754	0	0	0	0	0	0	0	0	0
0.52	179.954	1827.69	-26.3436	0.596996	0	-0.274876	0.975164	9.90422	-0.142755	0	0	0	0	0	0	0	0	0
0.53	262.503	1526.03	-15.1529	0.551951	0	-0.273316	1.50651	8.75797	-0.0869631	0	0	0	0	0	0	0	0	0
0.54	296.626	1182.05	-7.14555	0.509354	0	-0.271834	1.72341	6.86776	-0.041516	0	0	0	0	0	0	0	0	0
0.55	273.42	824.34	-4.82883	0.46637	0	-0.270601	1.59508	4.80903	-0.0281704	0	0	0	0	0	0	0	0	0
0.56	210.994	501.33	-3.99939	0.42064	0	-0.268359	1.24319	2.95386	-0.0235646	0	0	0	0	0	0	0	0	0
0.57	129.065	261.373	-1.68477	0.392495	0	-0.263162	0.758447	1.53596	-0.00990052	0	0	0	0	0	0	0	0	0
0.58	55.6665	113.958	1.2829	0.422942	0	-0.252538	0.290906	0.59553	0.00670427	0	0	0	0	0	0	0	0	0
0.59	14.2943	39.3555	2.81875	0.547759	0	-0.229038	-0.00328184	-0.00903565	-0.000647159	0	0	0	0	0	0	0	0	0
0.6	1.18063	12.1245	2.41341	0.87494	0	-0.180132	-0.0357627	-0.367267	-0.0731051	0	0	0	0	0	0	0	0	0
0.61	0	0	0	0	0	0	0	0	0	0	0	0	0	0	0	0	0	0
0.62	0	0	0	0	0	0	0	0	0	0	0	0	0	0	0	0	0	0
0.63	0	0	0	0	0	0	0	0	0	0	0	0	0	0	0	0	0	0
0.64	0	0	0	0	0	0	0	0	0	0	0	0	0	0	0	0	0	0
0.65	0	0	0	0	0	0	0	0	0	0	0	0	0	0	0	0	0	0
0.66	0	0	0	0	0	0	0	0	0	0	0	0	0	0	0	0	0	0
0.67	0	0	0	0	0	0	0	0	0	0	0	0	0	0	0	0	0	0
0.68	0	0	0	0	0	0	0	0	0	0	0	0	0	0	0	0	0	0
0.69	0	0	0	0	0	0	0	0	0	0	0	0	0	0	0	0	0	0
0.7	0	0	0	0	0	0	0	0	0	0	0	0	0	0	0	0	0	0
0.71	0	0	0	0	0	0	0	0	0	-13.474	25.5643	-3.18052	1.04456	0	-0.522106	-2.52133	4.78374	-0.595156
0.72	0	0	0	0	0	0	0	0	0	-48.0063	104.103	0.62108	0.931855	0	-0.469315	-1.8981	4.11609	0.0245566
